<?xml version="1.0" encoding="UTF-8" standalone="no"?>
<!-- Created with Inkscape (http://www.inkscape.org/) -->

<svg
   width="24"
   height="24"
   viewBox="0 0 6.3499998 6.3500002"
   version="1.1"
   id="svg5"
   xmlns="http://www.w3.org/2000/svg"
   xmlns:svg="http://www.w3.org/2000/svg">
  <defs
     id="defs2" />
  <g
     id="layer1">
    <path
       id="path47865"
       style="font-weight:900;font-size:3.175px;line-height:1.25;font-family:'Noto Sans CJK SC';-inkscape-font-specification:'Noto Sans CJK SC Heavy';letter-spacing:-0.198437px;word-spacing:0px;fill:#000000;stroke-width:0.262527"
       d="M 4.7182611,0.24634913 C 4.5905255,0.24743055 4.4534967,0.26728467 4.3091123,0.30550775 3.931945,0.40535577 3.6508669,0.64427334 3.417148,0.98636013 L 3.9193757,1.3798707 C 4.0694767,1.146883 4.2087969,1.0034768 4.4230967,0.94674501 4.658826,0.88434003 4.8175353,0.97783023 4.872065,1.2097896 4.9351492,1.4781349 4.8041563,1.696364 4.2598354,1.8404628 L 4.3947251,2.4135621 C 5.0633396,2.2365587 5.2496175,2.3707307 5.3180471,2.661817 5.3779235,2.9165175 5.209068,3.17319 4.9203468,3.1778704 4.6316256,3.1825518 4.3909472,3.1283614 4.1792005,3.0262772 L 3.9472501,3.6284274 c 0.04729,0.035652 0.097462,0.068039 0.1498222,0.096661 L 3.9601917,4.1355014 C 3.9173765,4.2750474 3.8806313,4.427871 3.8347585,4.5739083 H 3.8193276 C 3.7765133,4.427871 3.7397677,4.2750474 3.6938952,4.1355006 L 3.3330287,3.090717 H 2.7426998 V 5.5082977 H 3.231986 V 4.680605 c 0,-0.2401502 -0.042659,-0.6002952 -0.070183,-0.8372001 H 3.174247 L 3.357419,4.421258 3.6665206,5.3038837 H 3.9661647 L 4.2717818,4.421258 4.4584373,3.8523843 c 0.00564,0.00103 0.011242,0.00222 0.016925,0.00317 -0.030464,0.236936 -0.072174,0.5887567 -0.072174,0.8250515 V 5.508298 H 4.90193 V 3.861364 C 4.982076,3.8512244 5.0654972,3.835088 5.1517996,3.8122412 5.7861263,3.6443153 6.2466396,3.1455957 6.0980182,2.5133925 5.9953735,2.0767627 5.6698483,1.8727487 5.2916667,1.8520833 l -0.00547,-0.022713 C 5.5905693,1.5941911 5.700298,1.2854263 5.6211759,0.94885782 5.5100775,0.47626887 5.1744598,0.24248702 4.7182611,0.24634913 Z M 1.9313706,2.5324075 1.800463,3.051102 C 1.7053073,3.057772 1.6128748,3.077232 1.5247106,3.108676 L 1.2852939,2.6686836 0.8437915,2.939123 1.095652,3.4023563 C 1.0101304,3.5004931 0.93915949,3.6178608 0.88709557,3.7536107 L 0.43713147,3.6257858 0.30522825,4.1487056 0.79053246,4.2865664 c -1.3231e-4,0.00912 -4.9695e-4,0.018254 -4.9695e-4,0.027467 0,0.1467512 0.0160984,0.2808584 0.0452951,0.401962 L 0.39681466,4.9843213 0.65166158,5.4528365 1.0687743,5.1971868 c 0.073631,0.088302 0.159346,0.1603836 0.2538514,0.2160347 L 1.1927135,5.9271619 1.6849861,6.0671353 1.8148984,5.553195 c 0.014101,5.138e-4 0.028591,5.409e-4 0.042806,5.409e-4 0.085446,0 0.1669885,-0.01026 0.2448919,-0.030108 L 2.3534616,5.9852769 2.794964,5.7148375 2.5465878,5.2584709 c 0.018434,-0.019531 0.03681,-0.040349 0.054254,-0.0618 L 2.313144,4.8332681 C 2.2061084,4.9565885 2.0625977,5.0540568 1.8791078,5.0540568 c -0.321107,0 -0.5291059,-0.2792542 -0.5291059,-0.7595545 0,-0.4705647 0.2414953,-0.7495187 0.5350789,-0.749519 0.1620827,0 0.2814904,0.077701 0.3977006,0.1880402 L 2.5669947,3.3632694 C 2.4951494,3.2855332 2.4056932,3.2127834 2.3011973,3.1567423 l 0.122446,-0.4843612 z" />
  </g>
</svg>
