<?xml version="1.0" encoding="UTF-8"?>
<!-- Created with Inkscape (http://www.inkscape.org/) -->
<svg width="48" height="48" version="1.1" viewBox="0 0 12.7 12.7" xmlns="http://www.w3.org/2000/svg">
 <rect x="2.2204e-16" y="2.2204e-16" width="12.7" height="12.7" fill="#212121"/>
 <path transform="scale(.26458)" d="m0 0v48h48v-48zm4 4h40v40h-40zm12.191 7.9844c-0.55467 0-1.1094 0.05349-1.6641 0.16016-0.53333 0.10667-1.0445 0.29884-1.5352 0.57617-0.49067 0.256-0.9285 0.59677-1.3125 1.0234-0.36267 0.40533-0.67174 0.863-0.92774 1.375-0.23467 0.49067-0.41692 1.0137-0.54492 1.5684-0.10667 0.55467-0.1582 1.1094-0.1582 1.6641 0 0.512 0.05154 1.0251 0.1582 1.5371 0.10667 0.49067 0.26714 0.97012 0.48047 1.4395 0.23467 0.448 0.51203 0.87396 0.83203 1.2793 0.34133 0.384 0.70389 0.74656 1.0879 1.0879 0.384 0.32 0.79013 0.61915 1.2168 0.89648 0.42667 0.27733 0.8645 0.53291 1.3125 0.76758 0.46933 0.23467 0.927 0.47041 1.375 0.70508 0.46933 0.23467 0.88538 0.53382 1.248 0.89648 0.384 0.34133 0.68315 0.74552 0.89648 1.2148 0.21333 0.46933 0.32031 0.96066 0.32031 1.4727 0 0.40533-0.06536 0.80951-0.19336 1.2148-0.10667 0.40533-0.28697 0.77976-0.54297 1.1211-0.23467 0.32-0.54373 0.56566-0.92773 0.73633-0.384 0.14933-0.77826 0.22266-1.1836 0.22266-0.40533 0-0.80155-0.06341-1.1855-0.19141-0.36267-0.14933-0.67173-0.37321-0.92773-0.67188s-0.44817-0.63944-0.57617-1.0234c-0.10667-0.384-0.16016-0.76834-0.16016-1.1523v-0.0332h-3.5508v0.06445c0 0.55467 0.063406 1.1094 0.19141 1.6641 0.128 0.53333 0.32017 1.0464 0.57617 1.5371 0.27733 0.46933 0.6181 0.90521 1.0234 1.3105 0.40533 0.384 0.85308 0.69502 1.3438 0.92969 0.512 0.23467 1.0469 0.39318 1.6016 0.47852 0.55467 0.10667 1.1094 0.16016 1.6641 0.16016s1.1094-0.05349 1.6641-0.16016c0.576-0.10667 1.1089-0.28697 1.5996-0.54297 0.512-0.256 0.96967-0.58686 1.375-0.99219 0.40533-0.42667 0.73619-0.88629 0.99219-1.377 0.256-0.512 0.44817-1.0449 0.57617-1.5996 0.128-0.55467 0.19141-1.1193 0.19141-1.6953 0-0.512-0.06341-1.0132-0.19141-1.5039-0.10667-0.512-0.27705-0.99341-0.51172-1.4414-0.21333-0.46933-0.48078-0.8953-0.80078-1.2793-0.32-0.40533-0.67069-0.77781-1.0547-1.1191-0.384-0.34133-0.80005-0.64048-1.248-0.89648-0.42667-0.27733-0.87442-0.53291-1.3438-0.76758l-1.3457-0.70508c-0.448-0.23467-0.86405-0.52195-1.248-0.86328-0.36267-0.36267-0.64995-0.77871-0.86328-1.248-0.21333-0.49067-0.32031-0.99191-0.32031-1.5039 0-0.384 0.04357-0.76834 0.12891-1.1523 0.10667-0.40533 0.26518-0.76789 0.47852-1.0879 0.21333-0.32 0.50257-0.56566 0.86524-0.73633 0.36267-0.192 0.73514-0.28711 1.1191-0.28711 0.384 0 0.74656 0.08519 1.0879 0.25586 0.36267 0.14933 0.6519 0.37321 0.86523 0.67188 0.23467 0.29867 0.39318 0.63944 0.47852 1.0234 0.10667 0.36267 0.16016 0.73709 0.16016 1.1211h3.5527v-0.0332c0-0.53333-0.06341-1.0663-0.19141-1.5996-0.10667-0.55467-0.28892-1.0658-0.54492-1.5352-0.23467-0.49067-0.54373-0.9285-0.92773-1.3125-0.384-0.40533-0.82183-0.73619-1.3125-0.99219-0.46933-0.256-0.98049-0.42638-1.5352-0.51172-0.53333-0.10667-1.0781-0.16016-1.6328-0.16016zm9.8574 7.1348v10.24c0 0.512 0.01983 1.0251 0.0625 1.5371 0.064 0.49067 0.16106 0.98004 0.28906 1.4707 0.14933 0.49067 0.3415 0.97207 0.57617 1.4414 0.23467 0.448 0.53186 0.84226 0.89453 1.1836 0.384 0.34133 0.82183 0.59691 1.3125 0.76758 0.49067 0.17066 0.99191 0.25586 1.5039 0.25586 0.448 0 0.88583-0.06341 1.3125-0.19141 0.42667-0.10667 0.81101-0.28892 1.1523-0.54492 0.36267-0.27733 0.67173-0.59632 0.92773-0.95898 0.256-0.36267 0.46996-0.75693 0.64062-1.1836v2.623h3.5508v-16.641h-3.5508v10.24c0 0.27733-0.02179 0.5547-0.06445 0.83203-0.02133 0.27733-0.07482 0.5547-0.16016 0.83203-0.064 0.256-0.17098 0.50166-0.32031 0.73633-0.128 0.23467-0.29838 0.44862-0.51172 0.64062-0.192 0.192-0.42579 0.33068-0.70312 0.41602-0.256 0.08533-0.52345 0.12695-0.80078 0.12695-0.27733 0-0.5547-0.04162-0.83203-0.12695-0.256-0.08533-0.49174-0.22402-0.70508-0.41602-0.192-0.192-0.36238-0.40596-0.51172-0.64062-0.128-0.23467-0.23302-0.48033-0.31836-0.73633-0.064-0.27733-0.11749-0.5547-0.16016-0.83203-0.02134-0.27733-0.0332-0.5547-0.0332-0.83203v-10.24z" fill="#64b5f6"/>
</svg>
