<?xml version="1.0" encoding="UTF-8" standalone="no"?>
<!-- Created with Inkscape (http://www.inkscape.org/) -->

<svg
   width="24"
   height="24"
   viewBox="0 0 6.3499999 6.3500002"
   version="1.1"
   id="svg5"
   xmlns="http://www.w3.org/2000/svg"
   xmlns:svg="http://www.w3.org/2000/svg">
  <defs
     id="defs2" />
  <path
     id="path4187"
     style="color:#000000;fill:#000000;stroke-width:0.264583;-inkscape-stroke:none"
     d="M 5.1319865,0.81907147 C 4.357735,0.82461158 3.8511306,1.1028401 3.5253664,1.3993978 3.3624841,1.5476767 3.2422852,1.6974781 3.1470947,1.811259 3.0537,1.9228933 2.9810761,1.989722 2.9610596,2.0014283 2.764812,2.0936785 2.5202957,2.1117445 2.2443075,2.1166667 c -0.9445524,0.00254 -1.71514085,0.774668 -1.71514082,1.7197917 -3e-8,0.94668 0.77311182,1.7197917 1.71979172,1.7197917 0.9461611,0 1.718945,-0.7722703 1.7197917,-1.7182415 v -0.00155 C 3.9707874,3.5791532 4.1110017,3.4502615 4.3232505,3.2302938 4.5359475,3.009862 4.8125953,2.6825671 4.764567,2.1983155 l -0.00156,-0.01447 -0.0031,-0.013953 C 4.7266218,2.0131606 4.7268986,2.0135788 4.817266,1.8970419 4.9076336,1.7805049 5.1217204,1.5915761 5.4565035,1.2795085 L 5.9236585,0.84387613 5.2854544,0.82113863 c -0.052091,-0.001823 -0.1033735,-0.002426 -0.153479,-0.002066 z M 4.5180706,1.4562419 C 4.487893,1.4896606 4.4249278,1.5392049 4.398698,1.5730306 4.2514444,1.7629272 4.1947712,2.0116962 4.2374676,2.2510254 4.265774,2.53643 4.1461866,2.6516717 3.9423952,2.8628743 3.7386036,3.0740769 3.4422139,3.3659234 3.4395834,3.8349082 v 0.00103 5.292e-4 c 0,0.6606754 -0.5299279,1.1906142 -1.190625,1.1906142 -0.6606973,0 -1.1906251,-0.5299279 -1.190625,-1.1906251 -1e-7,-0.6606971 0.5299278,-1.190625 1.190625,-1.190625 h 0.00259 0.00207 C 2.5414937,2.6406989 2.872993,2.6319171 3.1951539,2.477885 l 0.00465,-0.00259 0.00465,-0.00207 C 3.3631609,2.3892916 3.45335,2.2695921 3.5527558,2.1507727 3.6521616,2.0319532 3.7546016,1.906505 3.8819347,1.7905879 4.0354116,1.6508713 4.2511497,1.538768 4.5180717,1.4562414 Z M 3.911906,1.8417481 3.7088176,2.0138306 c 0,0 0.04576,0.05229 0.066663,0.1539958 0.020902,0.101706 0.018243,0.2400933 -0.1214395,0.4258138 -0.2518075,0.3347992 -0.4747917,0.4193489 -0.6325196,0.4356324 -0.1577279,0.016282 -0.24598,-0.033073 -0.24598,-0.033073 l -0.00206,0.00362 C 2.6529163,2.9396318 2.5215425,2.9004031 2.3869376,2.8830276 2.2326649,2.8631124 2.0738789,2.8721479 1.921333,2.9135169 1.3846896,3.0590472 1.0325614,3.589323 1.201997,4.1020747 1.3448885,4.5344978 1.8465231,4.8186847 2.3280265,4.6720658 2.7222744,4.5520164 2.9808594,4.1495724 2.8334219,3.7677281 2.7176363,3.4678576 2.35187,3.2708647 2.01125,3.4003087 1.8856335,3.4480464 1.785513,3.5377579 1.7285799,3.6493893 1.6716468,3.7610207 1.6613088,3.9013046 1.7296144,4.0266272 L 1.9745607,3.9113887 c -0.027489,-0.050436 -0.02408,-0.1006845 0.00258,-0.1529622 0.026662,-0.052278 0.07998,-0.09972 0.1384928,-0.1219563 C 2.297675,3.5672914 2.5083262,3.6812422 2.575042,3.8540278 2.6662418,4.0902526 2.4976408,4.351417 2.2422405,4.429187 1.9162702,4.5284457 1.5643087,4.3296748 1.4645101,4.0276612 1.34255,3.6585814 1.6032561,3.2656016 1.9983277,3.1584636 2.2257255,3.0967964 2.4790721,3.1307898 2.6830404,3.2457968 l 0.00103,-0.00206 c 0.059929,0.024077 0.1950874,0.066617 0.3648358,0.049092 C 3.2801923,3.2689494 3.5795959,3.1338351 3.8653956,2.7538403 4.0457333,2.5140641 4.0693278,2.2801346 4.0354127,2.1151164 4.0014978,1.9500982 3.911906,1.8417481 3.911906,1.8417481 Z" />
</svg>
