<?xml version="1.0" encoding="UTF-8" standalone="no"?>
<!-- Created with Inkscape (http://www.inkscape.org/) -->

<svg
   width="24"
   height="24"
   viewBox="0 0 6.3499999 6.3500002"
   version="1.1"
   id="svg5"
   xmlns="http://www.w3.org/2000/svg"
   xmlns:svg="http://www.w3.org/2000/svg">
  <defs
     id="defs2" />
  <g
     id="layer1">
    <path
       id="path11189"
       style="fill:#000000;stroke:none;stroke-width:0.0999999;stroke-linecap:butt;stroke-linejoin:miter;stroke-miterlimit:4;stroke-dasharray:none;stroke-opacity:1"
       d="m 10,4 c -1.9063582,1.8663439 -1.9967906,5.6328522 -1.1328125,8.580078 -0.026272,0.01444 -0.05193,0.03011 -0.078125,0.04492 -0.1243202,0.07031 -0.2486473,0.143859 -0.3710937,0.222656 -0.1090716,0.07019 -0.2167917,0.143781 -0.3242188,0.220703 -0.028975,0.02074 -0.05709,0.04322 -0.085937,0.06445 -0.086325,0.06355 -0.1726727,0.129334 -0.2578125,0.197266 -0.018628,0.01486 -0.038072,0.0279 -0.056641,0.04297 -0.00539,0.0044 -0.010237,0.0093 -0.015625,0.01367 -0.00532,0.0043 -0.010312,0.0093 -0.015625,0.01367 -0.094165,0.07719 -0.1867314,0.157625 -0.2792969,0.240234 -0.02609,0.02328 -0.052168,0.0466 -0.078125,0.07031 C 7.2022672,13.804509 7.1002648,13.899735 7,14 6.0000001,11 3,9 3,9 c 0,2 1.4651234,10.54607 9,11 7.534877,-0.45393 9,-9 9,-11 0,0 -3,2 -4,5 -0.146635,-0.146635 -0.296084,-0.285678 -0.447266,-0.417969 0,0 -0.002,-0.002 -0.002,-0.002 0,0 -0.002,-0.002 -0.002,-0.002 -0.138738,-0.12125 -0.27969,-0.236526 -0.421875,-0.345703 -0.01257,-0.0096 -0.02452,-0.01974 -0.03711,-0.0293 -0.01095,-0.0083 -0.02224,-0.0152 -0.0332,-0.02344 -0.126247,-0.09482 -0.254182,-0.184155 -0.382813,-0.269532 -0.02839,-0.01885 -0.05548,-0.04021 -0.08398,-0.05859 -0.0025,-0.0016 -0.0053,-0.0023 -0.0078,-0.0039 -0.136774,-0.08802 -0.27497,-0.168662 -0.414062,-0.246094 -0.01208,-0.0067 -0.02306,-0.01484 -0.03516,-0.02148 C 15.996868,9.6329382 15.906358,5.8663442 14,4 c 0.974561,2.9236826 0.04947,5.8476284 -0.923828,7.845703 -0.0084,-0.0015 -0.01694,-0.0024 -0.02539,-0.0039 -0.116146,-0.02004 -0.233091,-0.03742 -0.349609,-0.05078 -0.0065,-7.47e-4 -0.01302,-0.0012 -0.01953,-0.002 0,0 -0.002,0 -0.002,0 -0.130811,-0.01454 -0.261511,-0.02513 -0.392579,-0.03125 -0.125329,-0.0059 -0.251576,-0.0077 -0.376953,-0.0059 -0.01497,2.2e-4 -0.02995,0.0016 -0.04492,0.002 -0.11681,0.0026 -0.232931,0.0064 -0.349609,0.01563 -0.0065,5.14e-4 -0.01303,0.0014 -0.01953,0.002 -0.119293,0.0098 -0.238434,0.02419 -0.357422,0.04102 -0.0058,8.26e-4 -0.01174,0.0011 -0.01758,0.002 -0.02478,0.0036 -0.04946,0.0078 -0.07422,0.01172 -0.04092,0.0064 -0.08217,0.01229 -0.123047,0.01953 C 9.9505753,9.8475585 9.025439,6.9236826 10,4 Z M 7.953125,15 C 7.968742,14.999516 7.984375,15 8,15 c 1.0000003,0 2,1 2,3 C 9.0000001,18 7.9999999,18 7,17 6.0156251,16.015625 6.969231,15.030521 7.953125,15 Z m 8,0 c 0.01562,-4.88e-4 0.03125,0 0.04687,0 1,0 2,1 1,2 -1,1 -2,1 -3,1 0,-1.96875 0.96899,-2.969238 1.953125,-3 z m -4.044922,3 c 0.0298,-4.81e-4 0.06055,0 0.0918,0 2,0 1,1 0,1 -0.984378,0 -1.968983,-0.96972 -0.0918,-1 z"
       transform="scale(0.26458333)" />
  </g>
</svg>
