<?xml version="1.0" encoding="UTF-8" standalone="no"?>
<!-- Created with Inkscape (http://www.inkscape.org/) -->

<svg
   width="24"
   height="24"
   viewBox="0 0 6.3499999 6.3500002"
   version="1.1"
   id="svg5"
   xmlns="http://www.w3.org/2000/svg"
   xmlns:svg="http://www.w3.org/2000/svg">
  <defs
     id="defs2" />
  <g
     id="layer1"
     style="display:inline">
    <path
       id="path1888"
       style="fill:#000000;fill-opacity:1;stroke:none;stroke-width:1.81818;stroke-opacity:1"
       d="M 12,2 A 9.9999995,9.9999995 0 0 0 6.0429688,4 H 16 V 2.8378906 A 9.9999995,9.9999995 0 0 0 12,2 Z m 5,1.3417969 V 12.296875 L 21.201172,8.0917969 C 20.353181,6.094618 18.878622,4.4274268 17,3.3417969 Z M 4.8945312,5 A 9.9999995,9.9999995 0 0 0 3.3652344,7 H 12 16 V 5 Z M 2.8457031,8 a 9.9999995,9.9999995 0 0 0 -0.7734375,3 h 5.03125 A 4.9999996,4.9999996 0 0 1 9,8.0253906 V 8 H 8 Z M 21.578125,9.1269531 14.705078,16 h 6.457031 C 21.713787,14.738564 21.99904,13.376797 22,12 21.999913,11.026892 21.85779,10.059008 21.578125,9.1269531 Z M 2,12 a 9.9999995,9.9999995 0 0 0 0.8457031,4 H 7 v -2 -2 z m 6,2.703125 v 6.451172 C 9.2608636,21.70866 10.622653,21.996577 12,22 12.972453,21.999723 13.939666,21.857602 14.871094,21.578125 12.581079,19.286109 10.291016,16.994141 8,14.703125 Z M 3.3652344,17 A 9.9999995,9.9999995 0 0 0 7,20.634766 V 17 Z m 8.3417966,0 4.201172,4.201172 c 1.997179,-0.847991 3.66437,-2.32255 4.75,-4.201172 z"
       transform="scale(0.26458333)" />
  </g>
</svg>
