<?xml version="1.0" encoding="UTF-8" standalone="no"?>
<!-- Created with Inkscape (http://www.inkscape.org/) -->

<svg
   width="24"
   height="24"
   viewBox="0 0 6.3499999 6.3500002"
   version="1.1"
   id="svg5"
   xmlns="http://www.w3.org/2000/svg"
   xmlns:svg="http://www.w3.org/2000/svg">
  <defs
     id="defs2" />
  <g
     id="layer1">
    <path
       id="rect860"
       style="fill:#000000;fill-opacity:1;stroke-width:2"
       d="M 13,1 V 5.4648438 21.949219 23 h 1 v -2.050781 l 2.242188,-2.242188 c 0.391734,-0.391737 0.391734,-1.022325 0,-1.414062 L 14,15.050781 V 14 l 2,-2 3.292969,3.292969 c 0.391737,0.391737 1.022325,0.391737 1.414062,0 0.391737,-0.391737 0.391737,-1.022326 0,-1.414063 L 17.404297,10.576172 C 17.68041,10.185448 17.643238,9.643238 17.292969,9.2929688 L 14,6 V 1 Z m 4.5,2 A 2.4999999,2.4999999 0 0 0 15,5.5 2.4999999,2.4999999 0 0 0 17.5,8 2.4999999,2.4999999 0 0 0 20,5.5 2.4999999,2.4999999 0 0 0 17.5,3 Z M 6.9511719,5.8710938 C 5.2551735,5.8710938 4.1679992,6.4648914 3,7.7128906 L 4.5527344,9.2480469 C 5.128734,8.6400475 5.7523601,8.0957031 6.5683594,8.0957031 c 0.9599992,0 1.5507812,0.5916885 1.5507812,1.6796875 0,1.7279984 -1.9986118,3.8877994 -4.9746094,6.5917974 V 18 H 11.400391 V 15.599609 H 9.2246094 c -0.5439995,0 -1.3611255,0.08016 -1.953125,0.160157 1.8239985,-1.839999 3.5839846,-4.096533 3.5839846,-6.1445316 0,-2.271998 -1.600299,-3.7441407 -3.9042971,-3.7441406 z M 14,17 l 1,1 -1,1 z"
       transform="scale(0.26458333)" />
  </g>
</svg>
