<?xml version="1.0" encoding="UTF-8" standalone="no"?>
<!-- Created with Inkscape (http://www.inkscape.org/) -->

<svg
   width="24"
   height="24"
   viewBox="0 0 6.3499999 6.3500002"
   version="1.1"
   id="svg5"
   xmlns="http://www.w3.org/2000/svg"
   xmlns:svg="http://www.w3.org/2000/svg">
  <defs
     id="defs2" />
  <g
     id="layer1">
    <path
       id="rect55"
       style="fill:#000000;stroke-width:0.0999999"
       d="M 4,2 C 2.8919999,2 2,2.8919999 2,4 v 16 c 0,1.108 0.8919999,2 2,2 h 16 c 1.108,0 2,-0.892 2,-2 V 4 C 22,2.8919999 21.108,2 20,2 Z M 4,4 H 20 V 20 H 4 Z m 2,2 v 2 l 4,4 -4,4 v 2 h 2 l 4,-4 4,4 h 2 V 16 L 14,12 18,8 V 6 H 16 L 12,10 8,6 Z"
       transform="scale(0.26458333)" />
  </g>
</svg>
