<?xml version="1.0" encoding="UTF-8" standalone="no"?>
<!-- Created with Inkscape (http://www.inkscape.org/) -->

<svg
   width="24"
   height="24"
   viewBox="0 0 6.3499999 6.3500002"
   version="1.1"
   id="svg5"
   xmlns="http://www.w3.org/2000/svg"
   xmlns:svg="http://www.w3.org/2000/svg">
  <defs
     id="defs2" />
  <path
     id="path13722"
     style="color:#000000;fill:#000000;stroke-width:3.77953;-inkscape-stroke:none"
     d="M 13.255859 4.0019531 C 12.959873 4.0008434 12.779099 4.087463 12.601562 4.1699219 C 12.398662 4.2641606 12.210428 4.3796632 12.009766 4.5175781 C 11.60844 4.7934046 11.159215 5.1615135 10.666016 5.6035156 C 9.6796175 6.4875195 8.5184454 7.6712149 7.3964844 8.9179688 C 6.2745237 10.164723 5.1990836 11.469026 4.3925781 12.615234 C 3.9893252 13.188339 3.6563756 13.722086 3.4101562 14.210938 C 3.1639369 14.69979 2.9501123 15.106877 3.0039062 15.716797 C 3.0616355 16.371335 3.4787183 16.773399 3.8828125 17.074219 C 4.2869071 17.375039 4.7609755 17.61026 5.3066406 17.833984 C 6.3979709 18.281433 7.7669347 18.666638 9.1601562 18.986328 C 10.553378 19.306019 11.967096 19.557067 13.109375 19.732422 C 13.680515 19.820099 14.181718 19.886804 14.585938 19.931641 C 14.990157 19.976477 15.250437 20.009552 15.53125 19.998047 C 16.121026 19.973884 16.564449 19.752079 17.103516 19.472656 C 17.642582 19.193234 18.218933 18.829644 18.765625 18.410156 C 19.312318 17.990669 19.830455 17.522438 20.240234 17.015625 C 20.650014 16.508812 21.012535 15.958963 21.001953 15.214844 C 20.995567 14.76579 20.866608 14.466724 20.707031 14.054688 C 20.547454 13.642651 20.332248 13.171625 20.072266 12.652344 C 19.5523 11.61378 18.858987 10.388448 18.107422 9.1914062 C 17.355857 7.9943645 16.553111 6.8296479 15.804688 5.9121094 C 15.430476 5.4533405 15.067244 5.0527108 14.712891 4.7324219 C 14.358537 4.4121334 14.047064 4.1399777 13.515625 4.0234375 L 13.449219 4.0078125 L 13.390625 4.0078125 C 13.343379 4.0037779 13.298143 4.0021117 13.255859 4.0019531 z M 12.482422 6.5546875 C 13.564767 10.441922 14.330348 15.262072 14.394531 18.011719 C 14.087629 17.973169 13.791404 17.93142 13.398438 17.871094 C 12.298603 17.702254 10.918447 17.455093 9.5820312 17.148438 C 8.2456153 16.841781 6.9419285 16.468381 6.0234375 16.091797 C 5.564192 15.903505 5.2003452 15.713141 5.0058594 15.568359 C 4.9711296 15.542505 4.9459794 15.521267 4.9257812 15.501953 C 4.9528973 15.406429 5.0007679 15.243189 5.09375 15.058594 C 5.2737836 14.701168 5.5659571 14.226434 5.9355469 13.701172 C 6.6747265 12.650647 7.7146858 11.384416 8.7988281 10.179688 C 9.8829705 8.9749586 11.017497 7.8233595 11.929688 7.0058594 C 12.149569 6.8088031 12.293633 6.7086348 12.482422 6.5546875 z M 14.498047 7.3222656 C 15.133909 8.1237473 15.835698 9.1279248 16.505859 10.195312 C 17.227723 11.345048 17.904928 12.527924 18.388672 13.494141 C 18.630543 13.977249 18.82259 14.407413 18.949219 14.734375 C 19.044191 14.979597 19.089656 15.194367 19.105469 15.248047 C 19.087454 15.291158 19.007295 15.542337 18.771484 15.833984 C 18.498873 16.171149 18.08054 16.559568 17.621094 16.912109 C 17.161648 17.264651 16.662259 17.585933 16.240234 17.804688 C 16.167668 15.065962 15.424017 11.047853 14.498047 7.3222656 z M 20 18 L 20 21 L 22 21 L 22 23 L 23 23 L 23 18 L 22 18 L 22 20 L 21 20 L 21 18 L 20 18 z "
     transform="scale(0.26458334)" />
</svg>
