<?xml version="1.0" encoding="UTF-8" standalone="no"?>
<!-- Created with Inkscape (http://www.inkscape.org/) -->

<svg
   width="24"
   height="24"
   viewBox="0 0 6.3499999 6.3500002"
   version="1.1"
   id="svg5"
   xmlns="http://www.w3.org/2000/svg"
   xmlns:svg="http://www.w3.org/2000/svg">
  <defs
     id="defs2" />
  <g
     id="layer1">
    <path
       id="path864"
       style="fill:#000000;stroke-width:0.0999999"
       d="M 12.5,3 A 1.5,1.5 0 0 0 11,4.5 1.5,1.5 0 0 0 12,5.9140625 v 6.3789065 l -2,-2 V 8.9140625 A 1.5,1.5 0 0 0 11,7.5 1.5,1.5 0 0 0 9.5,6 1.5,1.5 0 0 0 8,7.5 1.5,1.5 0 0 0 9,8.9140625 v 1.7929685 l 3,3 v 3.585938 l -5,-5 V 11.914062 A 1.5,1.5 0 0 0 8,10.5 1.5,1.5 0 0 0 6.5,9 1.5,1.5 0 0 0 5,10.5 1.5,1.5 0 0 0 6,11.914062 v 0.792969 l 5.339844,5.339844 A 8.5,4.5000002 0 0 0 4,22.494141 9.5,4.5000002 0 0 1 12.5,20 9.5,4.5000002 0 0 1 21,22.492188 8.5,4.5000002 0 0 0 13.660156,18.046875 l 4.064453,-4.064453 A 1.5,1.5 0 0 0 19,12.5 1.5,1.5 0 0 0 17.5,11 1.5,1.5 0 0 0 16,12.5 1.5,1.5 0 0 0 16.595703,13.697266 L 13,17.292969 v -3.585938 l 3,-3 V 9.9140625 A 1.5,1.5 0 0 0 17,8.5 1.5,1.5 0 0 0 15.5,7 1.5,1.5 0 0 0 14,8.5 1.5,1.5 0 0 0 15,9.9140625 v 0.3789065 l -2,2 V 5.9140625 A 1.5,1.5 0 0 0 14,4.5 1.5,1.5 0 0 0 12.5,3 Z m 0,1 A 0.49999997,0.49999997 0 0 1 13,4.5 0.49999997,0.49999997 0 0 1 12.521484,5 H 12.5 A 0.49999997,0.49999997 0 0 1 12,4.5 0.49999997,0.49999997 0 0 1 12.5,4 Z m -3,3 A 0.49999997,0.49999997 0 0 1 10,7.5 0.49999997,0.49999997 0 0 1 9.5214844,8 H 9.5 A 0.49999997,0.49999997 0 0 1 9,7.5 0.49999997,0.49999997 0 0 1 9.5,7 Z m 6,1 A 0.49999997,0.49999997 0 0 1 16,8.5 0.49999997,0.49999997 0 0 1 15.521484,9 H 15.5 A 0.49999997,0.49999997 0 0 1 15,8.5 0.49999997,0.49999997 0 0 1 15.5,8 Z m -9,2 A 0.49999997,0.49999997 0 0 1 7,10.5 0.49999997,0.49999997 0 0 1 6.5214844,11 H 6.5 A 0.49999997,0.49999997 0 0 1 6,10.5 0.49999997,0.49999997 0 0 1 6.5,10 Z m 11,2 A 0.49999997,0.49999997 0 0 1 18,12.5 0.49999997,0.49999997 0 0 1 17.521484,13 H 17.5 A 0.49999997,0.49999997 0 0 1 17,12.5 0.49999997,0.49999997 0 0 1 17.5,12 Z"
       transform="scale(0.26458333)" />
  </g>
</svg>
