<?xml version="1.0" encoding="UTF-8" standalone="no"?>
<!-- Created with Inkscape (http://www.inkscape.org/) -->

<svg
   width="24"
   height="24"
   viewBox="0 0 6.3499999 6.3500002"
   version="1.1"
   id="svg5"
   xmlns="http://www.w3.org/2000/svg"
   xmlns:svg="http://www.w3.org/2000/svg">
  <defs
     id="defs2" />
  <path
     id="path11189"
     style="fill:#000000;stroke:none;stroke-width:0.0999999;stroke-linecap:butt;stroke-linejoin:miter;stroke-miterlimit:4;stroke-dasharray:none;stroke-opacity:1"
     d="M 9.046875 3 C 7.1405168 4.8663437 7.0500844 8.6328524 7.9140625 11.580078 C 7.8877948 11.594516 7.8621334 11.610203 7.8359375 11.625 C 7.7116175 11.695311 7.5872891 11.768861 7.4648438 11.847656 C 7.3557704 11.917846 7.2480505 11.991438 7.140625 12.068359 C 7.111636 12.089109 7.0835329 12.111583 7.0546875 12.132812 C 6.9683631 12.196361 6.8820164 12.262149 6.796875 12.330078 C 6.7782419 12.344932 6.7588032 12.35797 6.7402344 12.373047 C 6.7348297 12.377431 6.7299763 12.382334 6.7246094 12.386719 C 6.7192802 12.391027 6.7142757 12.396006 6.7089844 12.400391 C 6.6148212 12.47758 6.5222519 12.558016 6.4296875 12.640625 C 6.4036088 12.663907 6.3775203 12.687229 6.3515625 12.710938 C 6.2491411 12.804519 6.1471383 12.899733 6.046875 13 C 5.0468751 10 2.046875 8 2.046875 8 C 2.046875 10 3.5119984 18.54607 11.046875 19 C 18.581719 18.54605 20.046875 10 20.046875 8 C 20.046875 8 17.046875 10 16.046875 13 C 15.900241 12.853366 15.750791 12.714321 15.599609 12.582031 L 15.597656 12.580078 L 15.595703 12.578125 C 15.456964 12.456874 15.316014 12.341597 15.173828 12.232422 C 15.161242 12.222822 15.149305 12.212687 15.136719 12.203125 C 15.125758 12.19481 15.114476 12.187927 15.103516 12.179688 C 14.977268 12.084867 14.849335 11.995536 14.720703 11.910156 C 14.692319 11.891296 14.66522 11.869942 14.636719 11.851562 C 14.634219 11.849963 14.631401 11.849249 14.628906 11.847656 C 14.492133 11.759635 14.353938 11.678994 14.214844 11.601562 C 14.202749 11.594873 14.191782 11.586692 14.179688 11.580078 C 15.043787 8.6329885 14.953233 4.866344 13.046875 3 C 14.021436 5.9236824 13.096345 8.8476287 12.123047 10.845703 C 12.114656 10.844203 12.106122 10.84329 12.097656 10.841797 C 11.981511 10.821765 11.864566 10.804376 11.748047 10.791016 C 11.741546 10.790268 11.735054 10.789863 11.728516 10.789062 L 11.726562 10.789062 C 11.595753 10.774511 11.46505 10.763935 11.333984 10.757812 C 11.208655 10.751916 11.082406 10.750139 10.957031 10.751953 C 10.942064 10.752173 10.927095 10.753506 10.912109 10.753906 C 10.795299 10.756506 10.679178 10.760271 10.5625 10.769531 C 10.555999 10.770045 10.54947 10.770885 10.542969 10.771484 C 10.423676 10.781273 10.304534 10.79567 10.185547 10.8125 C 10.179764 10.813326 10.173789 10.813553 10.167969 10.814453 C 10.143175 10.818053 10.11851 10.822241 10.09375 10.826172 C 10.052829 10.832559 10.011579 10.838446 9.9707031 10.845703 C 8.9975171 8.847459 8.072314 5.9236824 9.046875 3 z M 7 14 C 7.0156094 13.999516 7.031258 14 7.046875 14 C 8.0468752 14 9.046875 15 9.046875 17 C 8.0468751 17 7.0468749 17 6.046875 16 C 5.0625012 15.015625 6.0161058 14.030521 7 14 z M 15 14 C 15.015609 13.999512 15.031262 14 15.046875 14 C 16.046875 14 17.046875 15 16.046875 16 C 15.046875 17 14.046875 17 13.046875 17 C 13.046875 15.03125 14.015865 14.030762 15 14 z M 10.955078 17 C 10.984861 16.999519 11.015622 17 11.046875 17 C 13.046875 17 12.046875 18 11.046875 18 C 10.062497 18 9.0778964 17.03028 10.955078 17 z M 16.046875 18 L 16.046875 23 L 18.046875 23 A 1 1 0 0 0 19.046875 22 L 19.046875 19 A 1 1 0 0 0 18.046875 18 L 16.046875 18 z M 20.046875 18 L 20.046875 23 L 23.046875 23 L 23.046875 22 L 21.046875 22 L 21.046875 21 L 23.046875 21 L 23.046875 20 L 21.046875 20 L 21.046875 19 L 23.046875 19 L 23.046875 18 L 20.046875 18 z M 17.046875 19 L 18.046875 19 L 18.046875 22 L 17.046875 22 L 17.046875 19 z "
     transform="scale(0.26458334)" />
</svg>
