<?xml version="1.0" encoding="UTF-8" standalone="no"?>
<!-- Created with Inkscape (http://www.inkscape.org/) -->

<svg
   width="24"
   height="24"
   viewBox="0 0 6.3499999 6.3500002"
   version="1.1"
   id="svg5"
   xmlns="http://www.w3.org/2000/svg"
   xmlns:svg="http://www.w3.org/2000/svg">
  <defs
     id="defs2" />
  <path
     id="path11189"
     style="fill:#000000;stroke:none;stroke-width:0.0999999;stroke-linecap:butt;stroke-linejoin:miter;stroke-miterlimit:4;stroke-dasharray:none;stroke-opacity:1"
     d="M 10 4 C 8.0936418 5.8663435 8.0032094 9.6328524 8.8671875 12.580078 C 8.8409198 12.594516 8.8152584 12.610203 8.7890625 12.625 C 8.6647425 12.695311 8.5404141 12.768861 8.4179688 12.847656 C 8.3088954 12.917846 8.2011755 12.991438 8.09375 13.068359 C 8.064761 13.089109 8.0366579 13.111583 8.0078125 13.132812 C 7.9214881 13.196361 7.8351414 13.262149 7.75 13.330078 C 7.7313669 13.344932 7.7119282 13.35797 7.6933594 13.373047 C 7.6879547 13.377431 7.6831013 13.382334 7.6777344 13.386719 C 7.6724052 13.391027 7.6674007 13.396006 7.6621094 13.400391 C 7.5679462 13.47758 7.4753769 13.558016 7.3828125 13.640625 C 7.3567338 13.663907 7.3306453 13.687229 7.3046875 13.710938 C 7.2022661 13.804519 7.1002633 13.899733 7 14 C 6.0000001 11 3 9 3 9 C 3 11 4.4651233 19.54607 12 20 C 19.534844 19.54605 21 11 21 9 C 21 9 18 11 17 14 C 16.853366 13.853366 16.703916 13.714321 16.552734 13.582031 L 16.550781 13.580078 L 16.548828 13.578125 C 16.410089 13.456874 16.269139 13.341597 16.126953 13.232422 C 16.114367 13.222822 16.10243 13.212687 16.089844 13.203125 C 16.078883 13.19481 16.067601 13.187927 16.056641 13.179688 C 15.930393 13.084867 15.80246 12.995536 15.673828 12.910156 C 15.645444 12.891296 15.618345 12.869942 15.589844 12.851562 C 15.587344 12.849963 15.584526 12.849249 15.582031 12.847656 C 15.445258 12.759635 15.307063 12.678994 15.167969 12.601562 C 15.155874 12.594873 15.144907 12.586692 15.132812 12.580078 C 15.996912 9.6329885 15.906358 5.8663439 14 4 C 14.974561 6.9236822 14.04947 9.8476287 13.076172 11.845703 C 13.067781 11.844203 13.059247 11.84329 13.050781 11.841797 C 12.934636 11.821765 12.817691 11.804376 12.701172 11.791016 C 12.694671 11.790268 12.688179 11.789863 12.681641 11.789062 L 12.679688 11.789062 C 12.548878 11.774511 12.418175 11.763935 12.287109 11.757812 C 12.16178 11.751916 12.035531 11.750139 11.910156 11.751953 C 11.895189 11.752173 11.88022 11.753506 11.865234 11.753906 C 11.748424 11.756506 11.632303 11.760271 11.515625 11.769531 C 11.509124 11.770045 11.502595 11.770885 11.496094 11.771484 C 11.376801 11.781273 11.257659 11.79567 11.138672 11.8125 C 11.132889 11.813326 11.126914 11.813553 11.121094 11.814453 C 11.0963 11.818053 11.071635 11.822241 11.046875 11.826172 C 11.005954 11.832559 10.964704 11.838446 10.923828 11.845703 C 9.9506421 9.847459 9.025439 6.9236822 10 4 z M 7.953125 15 C 7.9687344 14.999516 7.984383 15 8 15 C 9.0000002 15 10 16 10 18 C 9.0000001 18 7.9999999 18 7 17 C 6.0156262 16.015625 6.9692308 15.030521 7.953125 15 z M 15.953125 15 C 15.968734 14.999512 15.984387 15 16 15 C 17 15 18 16 17 17 C 16 18 15 18 14 18 C 14 16.03125 14.96899 15.030762 15.953125 15 z M 11.908203 18 C 11.937986 17.999519 11.968747 18 12 18 C 14 18 13 19 12 19 C 11.015622 19 10.031021 18.03028 11.908203 18 z M 20 18 L 20 19 L 22 19 L 22 20 L 21 20 A 0.99999987 0.99999998 0 0 0 20 21 L 20 23 L 21 23 L 23 23 L 23 22 L 21 22 L 21 21 L 22 21 A 0.99999987 0.99999998 0 0 0 23 20 L 23 19 A 0.99999987 0.99999998 0 0 0 22 18 L 20 18 z "
     transform="scale(0.26458334)" />
</svg>
