<?xml version="1.0" encoding="UTF-8" standalone="no"?>
<!-- Created with Inkscape (http://www.inkscape.org/) -->

<svg
   width="24"
   height="24"
   viewBox="0 0 6.3499998 6.3500002"
   version="1.1"
   id="svg5"
   xmlns="http://www.w3.org/2000/svg"
   xmlns:svg="http://www.w3.org/2000/svg">
  <defs
     id="defs2" />
  <g
     id="layer1">
    <path
       id="path148"
       style="fill:#000000;stroke:none;stroke-width:0.0268867;stroke-linecap:butt;stroke-linejoin:miter;stroke-miterlimit:4;stroke-dasharray:none;stroke-opacity:1"
       d="M 3.6577874,0.26465072 C 2.6187235,0.27350744 1.8953724,1.7657848 1.8601718,1.8447609 2.0662925,1.25351 2.3004709,0.94783863 2.4478024,0.73388306 2.2368335,0.82000266 1.3461888,1.8696183 1.323291,3.7779569 1.3003934,5.6862953 2.3342399,6.0881304 2.7261257,6.0854029 3.1180117,6.0826753 4.3720031,5.8476694 4.948438,3.394415 5.3433848,0.82934081 4.1446062,0.24505303 3.707469,0.26516693 3.6908174,0.26454847 3.6742807,0.26451015 3.6577874,0.26465072 Z M 3.6049008,0.7581448 C 4.3261466,0.77057131 4.625039,2.1177888 4.2833471,3.1151468 4.5783104,2.6623545 4.5727929,2.1261203 4.5424387,1.424052 4.7200713,1.9587408 4.7192251,2.9025753 4.4703204,3.693815 3.5029232,6.2922584 2.2587213,5.212546 2.0605004,4.3292661 2.2598643,5.4668111 2.8126109,5.7281631 3.3645064,5.6476592 2.8175159,6.0125758 1.840692,5.5783296 1.8489534,3.9261082 1.8572132,2.2738871 2.6650647,1.0146607 3.4553221,0.77414721 3.5070991,0.76261091 3.5568171,0.75731631 3.6049008,0.7581448 Z" />
  </g>
</svg>
