<?xml version="1.0" encoding="UTF-8" standalone="no"?>
<!-- Created with Inkscape (http://www.inkscape.org/) -->

<svg
   width="24"
   height="24"
   viewBox="0 0 6.3499999 6.3500002"
   version="1.1"
   id="svg5"
   xmlns="http://www.w3.org/2000/svg"
   xmlns:svg="http://www.w3.org/2000/svg">
  <defs
     id="defs2" />
  <g
     id="layer1">
    <path
       id="path5"
       style="display:inline;fill:#000000;stroke-width:3.84756"
       d="M 10,0.5546875 1.0957031,5.5 v 9.753906 L 4.1445312,13.494141 V 7 L 10,3.6191406 Z m 2,0 V 3.5351562 L 18,7 v 6.578125 l 2.904297,1.675781 V 5.5 Z M 11,5 5.8046875,8 v 6 L 11,17 16.195312,14 V 8 Z M 4.8398438,15.402344 2.0351562,17.021484 11,22 15,19.779297 V 17 H 17.947266 18 c 0.445331,0 0.855846,0.167982 1.1875,0.453125 L 19.964844,17.021484 17.232422,15.443359 11.072266,19 Z"
       transform="scale(0.26458333)" />
    <path
       fill="currentColor"
       d="M 4.2333333,4.7625 V 6.0854167 H 4.7625 A 0.26458334,0.26458334 0 0 0 5.0270833,5.8208333 v -0.79375 A 0.26458334,0.26458334 0 0 0 4.7625,4.7625 H 4.2333333 M 4.4979167,5.0270833 H 4.7625 v 0.79375 H 4.4979167 Z"
       id="path995"
       style="stroke-width:0.132291" />
    <path
       fill="currentColor"
       d="M 5.5562501,4.7625 A 0.26458333,0.26458333 0 0 0 5.2916667,5.0270833 V 5.8208334 A 0.26458333,0.26458333 0 0 0 5.5562501,6.0854167 H 5.8208334 A 0.26458333,0.26458333 0 0 0 6.0854167,5.8208334 V 5.6885417 H 5.8208334 V 5.8208334 H 5.5562501 V 5.0270833 H 5.8208334 V 5.159375 H 6.0854167 V 5.0270833 A 0.26458333,0.26458333 0 0 0 5.8208334,4.7625 Z"
       id="path1004"
       style="stroke-width:0.132291" />
  </g>
</svg>
