<?xml version="1.0" encoding="UTF-8" standalone="no"?>
<!-- Created with Inkscape (http://www.inkscape.org/) -->

<svg
   width="24"
   height="24"
   viewBox="0 0 6.3500001 6.3500002"
   version="1.1"
   id="svg5"
   xmlns="http://www.w3.org/2000/svg"
   xmlns:svg="http://www.w3.org/2000/svg">
  <defs
     id="defs2">
    <linearGradient
       id="linearGradient10078">
      <stop
         style="stop-color:#000000;stop-opacity:1;"
         offset="0"
         id="stop10076" />
    </linearGradient>
  </defs>
  <g
     id="layer1">
    <path
       id="path871"
       style="fill:#000000;stroke:none;stroke-width:0.0999999;stroke-linecap:butt;stroke-linejoin:miter;stroke-miterlimit:4;stroke-dasharray:none;stroke-opacity:1"
       d="M 15.722656,4.1210938 C 14.876125,4.1298164 13.9375,4.375 13,5 c -1.714243,1.2747901 -2.937539,3.1727477 -4,5 -0.4250305,0.858917 -1.495185,5.42235 2,6 3.495987,0.577782 5.691522,-1.978447 6,-3 0.468804,-2.063098 0.300028,-5.1535113 0,-7 0.959114,0.201154 1.311847,0.1204649 2,0 C 19.0039,5.2304403 17.585026,4.101904 15.722656,4.1210938 Z M 9,5 C 7.728381,5.9379744 7.05553,8.0015512 7,9 5.8254646,8.6388574 3.1843094,9.1035131 2,10 c 0.1309535,1.848609 3.0000001,5 4,5 -0.059525,1.580183 0.2812194,4.01863 2,5 3.662385,-0.152172 5.636946,-1.089582 7,-2 1.366795,1.068678 3.660272,1.068508 5,1 0.134433,-1.657901 -0.117843,-2.771147 -1,-4 1.612088,-1.304772 2.631765,-2.656573 3,-4 C 21.067189,10.072271 19.567811,9.4302682 18.130859,9.1484375 18.323925,11.117156 18.26735,13.38071 17.078123,14.814453 15.62768,16.65384 11.034168,18.623815 8.3925781,15.605469 6.3155595,13.015097 7.4232237,9.3965733 10.349609,6.1230469 9.9679907,5.6671708 9.4694595,5.170127 9,5 Z"
       transform="scale(0.26458333)" />
  </g>
</svg>
