<?xml version="1.0" encoding="UTF-8" standalone="no"?>
<!-- Created with Inkscape (http://www.inkscape.org/) -->

<svg
   width="24"
   height="24"
   viewBox="0 0 6.3499999 6.3500002"
   version="1.1"
   id="svg5"
   xmlns="http://www.w3.org/2000/svg"
   xmlns:svg="http://www.w3.org/2000/svg">
  <defs
     id="defs2" />
  <path
     style="color:#000000;fill:#000000;-inkscape-stroke:none"
     d="m 3.5429688,1.0605469 c -0.1000042,-0.00854 -0.1553006,0.018035 -0.2089844,0.042969 -0.053684,0.024934 -0.103158,0.055307 -0.15625,0.091797 C 3.0715504,1.268292 2.9527579,1.3654755 2.8222656,1.4824219 2.5612811,1.7163146 2.2538834,2.0295047 1.9570312,2.359375 1.6601791,2.6892453 1.3754973,3.034623 1.1621094,3.3378906 1.0554154,3.4895245 0.96748928,3.6304236 0.90234375,3.7597656 0.83719822,3.8891077 0.78068888,3.9968284 0.79492187,4.1582031 0.81019608,4.3313831 0.92042711,4.4379862 1.0273437,4.5175781 1.1342604,4.5971701 1.259923,4.6595562 1.4042969,4.71875 1.6930447,4.8371375 2.0552049,4.9388527 2.4238281,5.0234375 2.7924513,5.1080223 3.166522,5.174307 3.46875,5.2207031 c 0.151114,0.023198 0.2836752,0.040871 0.390625,0.052734 0.1069498,0.011863 0.1757016,0.020622 0.25,0.017578 C 4.26542,5.2846219 4.3827626,5.2262743 4.5253906,5.1523437 4.6680187,5.0784132 4.820198,4.9820832 4.9648437,4.8710937 5.1094895,4.7601043 5.247048,4.6360475 5.3554687,4.5019531 5.4638895,4.3678587 5.5594403,4.2222721 5.5566406,4.0253906 5.554951,3.9065785 5.520737,3.8277679 5.4785156,3.71875 5.4362942,3.6097321 5.379334,3.4850495 5.3105469,3.3476563 5.1729727,3.0728697 4.9898672,2.748358 4.7910156,2.4316406 4.592164,2.1149233 4.3796611,1.8072185 4.1816406,1.5644531 4.0826304,1.4430705 3.9863342,1.3366962 3.8925781,1.2519531 3.798822,1.1672101 3.7167817,1.0952877 3.5761719,1.0644531 l -0.017578,-0.00391 z M 3.3027344,1.734375 C 3.5891048,2.7628726 3.7916121,4.0381143 3.8085938,4.765625 3.7273926,4.7554254 3.6488942,4.7444768 3.5449219,4.7285156 3.253924,4.6838435 2.8887496,4.6182454 2.5351563,4.5371094 2.1815629,4.4559733 1.8367674,4.3574504 1.59375,4.2578125 1.4722413,4.2079935 1.3756764,4.1574473 1.3242187,4.1191406 c -0.051458,-0.038307 -0.035588,-0.053095 -0.03125,-0.00391 0.0033,0.037384 0.00705,-0.036287 0.054687,-0.1308594 C 1.3952896,3.8898022 1.4725252,3.7639756 1.5703125,3.625 1.7658871,3.3470487 2.041279,3.0121106 2.328125,2.6933594 2.614971,2.3746082 2.9148995,2.0698125 3.15625,1.8535156 3.2144269,1.8013778 3.2527839,1.7751069 3.3027344,1.734375 Z M 3.8359375,1.9375 c 0.1682384,0.2120587 0.3539364,0.4773526 0.53125,0.7597656 0.1909931,0.3042009 0.3700562,0.6174022 0.4980469,0.8730469 0.063995,0.1278224 0.1149336,0.2416162 0.1484375,0.328125 0.033504,0.086509 0.043315,0.1591182 0.042969,0.1347656 -1.132e-4,-0.00796 -0.017715,0.067042 -0.089844,0.15625 C 4.8946685,4.2786613 4.7836712,4.3813327 4.6621094,4.4746094 4.5405476,4.567886 4.4085358,4.6530586 4.296875,4.7109375 4.2776752,3.9863163 4.0809338,2.9232283 3.8359375,1.9375 Z"
     id="path13722" />
</svg>
